<?xml version="1.0" encoding="UTF-8" standalone="no"?>
<svg
   xmlns:dc="http://purl.org/dc/elements/1.1/"
   xmlns:cc="http://creativecommons.org/ns#"
   xmlns:rdf="http://www.w3.org/1999/02/22-rdf-syntax-ns#"
   xmlns:svg="http://www.w3.org/2000/svg"
   xmlns="http://www.w3.org/2000/svg"
   xmlns:sodipodi="http://sodipodi.sourceforge.net/DTD/sodipodi-0.dtd"
   xmlns:inkscape="http://www.inkscape.org/namespaces/inkscape"
   width="100"
   height="100"
   viewBox="0 0 26.458333 26.458333"
   version="1.1"
   id="svg862"
   inkscape:version="1.0.1 (3bc2e813f5, 2020-09-07)"
   sodipodi:docname="launcher_thermometer.svg">
  <defs
     id="defs856" />
  <sodipodi:namedview
     id="base"
     pagecolor="#ffffff"
     bordercolor="#666666"
     borderopacity="1.0"
     inkscape:pageopacity="0.0"
     inkscape:pageshadow="2"
     inkscape:zoom="11.2"
     inkscape:cx="35.412567"
     inkscape:cy="39.337271"
     inkscape:document-units="px"
     inkscape:current-layer="layer1"
     inkscape:document-rotation="0"
     showgrid="true"
     units="px"
     inkscape:window-width="1858"
     inkscape:window-height="1057"
     inkscape:window-x="1974"
     inkscape:window-y="-8"
     inkscape:window-maximized="1">
    <inkscape:grid
       type="xygrid"
       id="grid1425" />
  </sodipodi:namedview>
  <metadata
     id="metadata859">
    <rdf:RDF>
      <cc:Work
         rdf:about="">
        <dc:format>image/svg+xml</dc:format>
        <dc:type
           rdf:resource="http://purl.org/dc/dcmitype/StillImage" />
        <dc:title></dc:title>
      </cc:Work>
    </rdf:RDF>
  </metadata>
  <g
     inkscape:label="Layer 1"
     inkscape:groupmode="layer"
     id="layer1">
    <path
       id="path1431"
       style="fill:none;stroke:#000000;stroke-width:0.999999;stroke-miterlimit:4;stroke-dasharray:none"
       d="M 50 5 C 45.568001 5 42 9.4600002 42 15 L 42 67.3125 A 15 15 0 0 0 35 80 A 15 15 0 0 0 50 95 A 15 15 0 0 0 65 80 A 15 15 0 0 0 58 67.3125 L 58 15 C 58 9.4600002 54.431999 5 50 5 z "
       transform="scale(0.26458333)" />
    <path
       id="path1446"
       style="fill:#ff0000;fill-opacity:1;stroke:none;stroke-width:0.347543;stroke-miterlimit:4;stroke-dasharray:none"
       d="m 13.24487,3.3735205 c -0.577615,0 -1.042629,0.4650126 -1.042629,1.0426292 V 18.521512 a 2.7803447,2.7803447 0 0 0 -1.737716,2.576707 2.7803447,2.7803447 0 0 0 2.780345,2.780344 2.7803447,2.7803447 0 0 0 2.780346,-2.780344 A 2.7803447,2.7803447 0 0 0 14.2875,18.520833 V 4.4161497 c 0,-0.5776166 -0.465014,-1.0426292 -1.04263,-1.0426292 z" />
    <path
       id="rect1461"
       style="fill:#cccccc;fill-opacity:1;stroke:none;stroke-width:0.264583;stroke-miterlimit:4;stroke-dasharray:none"
       d="m 13.229167,2.6458333 c 0.586316,0 1.058333,0.4720165 1.058333,1.0583331 l 0,3.7041668 h -2.116666 l 0,-3.7041668 c 0,-0.5863166 0.472016,-1.0583331 1.058333,-1.0583331 z"
       sodipodi:nodetypes="ssccss" />
    <path
       style="fill:none;stroke:#000000;stroke-width:0.972141;stroke-linecap:butt;stroke-linejoin:miter;stroke-miterlimit:4;stroke-dasharray:none;stroke-opacity:1"
       d="m 16.66875,2.6458333 h 3.968749"
       id="path1465" />
    <path
       style="fill:none;stroke:#000000;stroke-width:0.972141;stroke-linecap:butt;stroke-linejoin:miter;stroke-miterlimit:4;stroke-dasharray:none;stroke-opacity:1"
       d="M 16.66875,6.6145832 H 20.6375"
       id="path1475" />
    <path
       style="fill:none;stroke:#000000;stroke-width:0.972141;stroke-linecap:butt;stroke-linejoin:miter;stroke-miterlimit:4;stroke-dasharray:none;stroke-opacity:1"
       d="m 16.66875,10.583333 h 3.968749"
       id="path1483" />
    <path
       style="fill:none;stroke:#000000;stroke-width:0.972142;stroke-linecap:butt;stroke-linejoin:miter;stroke-miterlimit:4;stroke-dasharray:none;stroke-opacity:1"
       d="M 16.66875,14.552083 H 20.6375"
       id="path1491" />
  </g>
</svg>
