<?xml version="1.0" encoding="UTF-8" standalone="no"?>
<svg
   xmlns:dc="http://purl.org/dc/elements/1.1/"
   xmlns:cc="http://creativecommons.org/ns#"
   xmlns:rdf="http://www.w3.org/1999/02/22-rdf-syntax-ns#"
   xmlns:svg="http://www.w3.org/2000/svg"
   xmlns="http://www.w3.org/2000/svg"
   xmlns:sodipodi="http://sodipodi.sourceforge.net/DTD/sodipodi-0.dtd"
   xmlns:inkscape="http://www.inkscape.org/namespaces/inkscape"
   width="200"
   height="200"
   viewBox="0 0 52.916667 52.916666"
   version="1.1"
   id="svg1592"
   sodipodi:docname="launcher_garage_door.svg"
   inkscape:version="1.0.1 (3bc2e813f5, 2020-09-07)">
  <defs
     id="defs1586" />
  <sodipodi:namedview
     id="base"
     pagecolor="#ffffff"
     bordercolor="#666666"
     borderopacity="1.0"
     inkscape:pageopacity="0.0"
     inkscape:pageshadow="2"
     inkscape:zoom="2.8"
     inkscape:cx="40.956536"
     inkscape:cy="111.02749"
     inkscape:document-units="mm"
     inkscape:current-layer="layer1"
     inkscape:document-rotation="0"
     showgrid="true"
     units="px"
     inkscape:window-width="1858"
     inkscape:window-height="1057"
     inkscape:window-x="1974"
     inkscape:window-y="-8"
     inkscape:window-maximized="1">
    <inkscape:grid
       type="xygrid"
       id="grid2155" />
  </sodipodi:namedview>
  <metadata
     id="metadata1589">
    <rdf:RDF>
      <cc:Work
         rdf:about="">
        <dc:format>image/svg+xml</dc:format>
        <dc:type
           rdf:resource="http://purl.org/dc/dcmitype/StillImage" />
        <dc:title></dc:title>
      </cc:Work>
    </rdf:RDF>
  </metadata>
  <g
     inkscape:label="Layer 1"
     inkscape:groupmode="layer"
     id="layer1">
    <rect
       style="fill:none;stroke:#000000;stroke-width:0.676248;stroke-miterlimit:4;stroke-dasharray:none"
       id="rect2157"
       width="40.574921"
       height="23.668705"
       x="6.1112995"
       y="22.349895" />
    <path
       style="fill:none;stroke:#000000;stroke-width:0.676248;stroke-linecap:butt;stroke-linejoin:miter;stroke-miterlimit:4;stroke-dasharray:none;stroke-opacity:1"
       d="M 6.1112998,22.349897 H 1.0394349 L 11.183166,7.1343005 H 41.614357 L 51.758088,22.349897 h -5.071866"
       id="path2159" />
    <path
       style="color:#000000;font-style:normal;font-variant:normal;font-weight:normal;font-stretch:normal;font-size:medium;line-height:normal;font-family:sans-serif;font-variant-ligatures:normal;font-variant-position:normal;font-variant-caps:normal;font-variant-numeric:normal;font-variant-alternates:normal;font-variant-east-asian:normal;font-feature-settings:normal;font-variation-settings:normal;text-indent:0;text-align:start;text-decoration:none;text-decoration-line:none;text-decoration-style:solid;text-decoration-color:#000000;letter-spacing:normal;word-spacing:normal;text-transform:none;writing-mode:lr-tb;direction:ltr;text-orientation:mixed;dominant-baseline:auto;baseline-shift:baseline;text-anchor:start;white-space:normal;shape-padding:0;shape-margin:0;inline-size:0;clip-rule:nonzero;display:inline;overflow:visible;visibility:visible;opacity:1;isolation:auto;mix-blend-mode:normal;color-interpolation:sRGB;color-interpolation-filters:linearRGB;solid-color:#000000;solid-opacity:1;vector-effect:none;fill:#000000;fill-opacity:1;fill-rule:nonzero;stroke:none;stroke-width:0.676249;stroke-linecap:butt;stroke-linejoin:miter;stroke-miterlimit:4;stroke-dasharray:none;stroke-dashoffset:0;stroke-opacity:1;color-rendering:auto;image-rendering:auto;shape-rendering:auto;text-rendering:auto;enable-background:accumulate;stop-color:#000000;stop-opacity:1"
       d="m 16.255031,26.745347 c -2.991286,0 -5.408825,2.417538 -5.408825,5.408824 V 46.018602 H 41.951317 V 32.154171 c 0,-2.991286 -2.417538,-5.408824 -5.408824,-5.408824 z m 0,0.676415 h 20.287462 c 2.62834,0 4.734904,2.104067 4.734904,4.732409 V 46.018602 H 11.520125 V 32.154171 c 0,-2.628342 2.106565,-4.732409 4.734906,-4.732409 z"
       id="path2168"
       sodipodi:nodetypes="ssccssssssccss" />
    <path
       style="fill:none;stroke:#000000;stroke-width:0.338125px;stroke-linecap:butt;stroke-linejoin:miter;stroke-opacity:1"
       d="M 11.183166,30.803004 H 41.614357"
       id="path2176" />
    <path
       style="fill:none;stroke:#000000;stroke-width:0.338125px;stroke-linecap:butt;stroke-linejoin:miter;stroke-opacity:1"
       d="M 41.614357,34.184248 H 11.183166"
       id="path2178" />
    <path
       style="fill:none;stroke:#000000;stroke-width:0.338125px;stroke-linecap:butt;stroke-linejoin:miter;stroke-opacity:1"
       d="M 41.614357,37.565491 H 11.183166"
       id="path2180" />
    <path
       style="fill:none;stroke:#000000;stroke-width:0.338125px;stroke-linecap:butt;stroke-linejoin:miter;stroke-opacity:1"
       d="m 24.708138,35.874871 h 3.381245"
       id="path2182" />
    <path
       style="fill:#784421;stroke:#000000;stroke-width:0.245621;stroke-miterlimit:4;stroke-dasharray:none"
       d="m 1.5875,21.960379 c 0.022452,-0.0609 2.1899006,-3.357163 4.8165567,-7.325036 l 4.7757383,-7.214316 15.214492,-0.00335 15.214487,-0.00335 4.753174,7.174445 c 2.614245,3.94594 4.79437,7.24372 4.844718,7.328398 0.07311,0.122963 -4.916424,0.153959 -24.78422,0.153959 -14.668368,0 -24.8590152,-0.04543 -24.834946,-0.110721 z"
       id="path2184" />
    <path
       style="fill:#784421;stroke:#000000;stroke-width:0.241518;stroke-miterlimit:4;stroke-dasharray:none"
       d="m 11.571715,35.875472 v -1.509486 h 14.79294 14.79294 v 1.509486 1.509482 h -14.79294 -14.79294 z m 16.543941,0 c 0,-0.152684 -0.275062,-0.18114 -1.751001,-0.18114 -1.475939,0 -1.751001,0.02848 -1.751001,0.18114 0,0.152683 0.275062,0.181137 1.751001,0.181137 1.475939,0 1.751001,-0.02843 1.751001,-0.181137 z"
       id="path2186" />
    <path
       style="fill:#784421;stroke:#000000;stroke-width:0.241518;stroke-miterlimit:4;stroke-dasharray:none"
       d="m 11.571715,32.8716 c 0,-0.622664 0.034,-1.302148 0.07557,-1.509966 l 0.07557,-0.377847 14.687179,0.03067 14.687181,0.03067 0.03391,1.479294 0.03391,1.479294 H 26.368372 11.571715 Z"
       id="path2188" />
    <path
       style="fill:#784421;stroke:#000000;stroke-width:0.241518;stroke-miterlimit:4;stroke-dasharray:none"
       d="m 12.107425,30.033877 c 0.421401,-0.831593 1.322063,-1.682916 2.241394,-2.118599 l 0.785277,-0.372157 h 11.230559 11.23056 l 0.688519,0.278199 c 0.848905,0.342999 1.808661,1.187884 2.277052,2.004516 0.194164,0.338519 0.353535,0.656248 0.354161,0.706064 6.76e-4,0.04981 -6.547924,0.09057 -14.552327,0.09057 H 11.809164 Z"
       id="path2190" />
    <path
       style="fill:#6d8485;fill-opacity:1;stroke:#000000;stroke-width:0.241518;stroke-miterlimit:4;stroke-dasharray:none"
       d="M 6.4998492,34.18485 V 22.773154 H 26.364655 46.229459 V 34.18485 45.596548 h -2.113276 -2.113277 v -7.039012 c 0,-7.6298 -0.0072,-7.725286 -0.675381,-9.044016 -0.707971,-1.397112 -2.321226,-2.510232 -3.987104,-2.751033 -1.122316,-0.162233 -20.716,-0.160971 -21.844049,0.0014 -2.514787,0.361989 -4.359626,2.275763 -4.650855,4.824645 -0.0645,0.564546 -0.117692,3.947298 -0.118196,7.517228 l -9.13e-4,6.49078 H 8.6131297 6.4998526 Z"
       id="path2194" />
  </g>
</svg>
